<?xml version="1.0" encoding="UTF-8" standalone="no"?>
<!DOCTYPE svg PUBLIC "-//W3C//DTD SVG 1.1//EN" "http://www.w3.org/Graphics/SVG/1.1/DTD/svg11.dtd">
<svg width="100%" height="100%" viewBox="0 0 37 45" version="1.1" xmlns="http://www.w3.org/2000/svg" xmlns:xlink="http://www.w3.org/1999/xlink" xml:space="preserve" xmlns:serif="http://www.serif.com/" style="fill-rule:evenodd;clip-rule:evenodd;stroke-linejoin:round;stroke-miterlimit:2;">
    <g transform="matrix(1,0,0,1,-5442.12,-5257.25)">
        <g transform="matrix(1,0,0,1,4848.25,4892.25)">
            <g id="file-image" transform="matrix(2.25,0,0,2.25,584.869,360.507)">
                <path d="M12.999,8.998L18.499,8.998L12.999,3.498L12.999,8.998ZM5.999,1.998L13.999,1.998L19.999,7.998L19.999,19.998C19.999,21.102 19.103,21.998 17.999,21.998L5.989,21.998C4.885,21.998 3.999,21.102 3.999,19.998L4.009,3.998C4.009,2.894 4.894,1.998 5.999,1.998ZM6,20L18,20L18,12L14,16L12,14L6,20ZM8,9C6.895,9 6,9.895 6,11C6,12.105 6.895,13 8,13C9.105,13 10,12.105 10,11C10,9.895 9.105,9 8,9Z" style="fill:rgb(139,195,74);fill-rule:nonzero;"/>
            </g>
        </g>
    </g>
</svg>
