<?xml version="1.0" encoding="UTF-8"?>
<!DOCTYPE svg  PUBLIC '-//W3C//DTD SVG 1.1//EN'  'http://www.w3.org/Graphics/SVG/1.1/DTD/svg11.dtd'>
<svg clip-rule="evenodd" fill-rule="evenodd" stroke-linejoin="round" stroke-miterlimit="2" version="1.1" viewBox="0 0 37 45" xml:space="preserve" xmlns="http://www.w3.org/2000/svg">
    <g transform="translate(-5442.1 -5257.2)">
        <g transform="translate(4848.2 4892.2)">
            <g transform="matrix(2.25 0 0 2.25 584.87 360.51)">
                <path d="m12.999 8.998h5.5l-5.5-5.5v5.5zm-7-7h8l6 6v12c0 1.104-0.896 2-2 2h-12.01c-1.104 0-1.99-0.896-1.99-2l0.01-16c0-1.104 0.885-2 1.99-2zm1e-3 18.002h12v-8l-4 4-2-2-6 6zm2-11c-1.105 0-2 0.895-2 2s0.895 2 2 2 2-0.895 2-2-0.895-2-2-2z" fill="#8bc34a" fill-rule="nonzero"/>
            </g>
        </g>
    </g>
</svg>
