<?xml version="1.0" encoding="UTF-8"?>
<!DOCTYPE svg  PUBLIC '-//W3C//DTD SVG 1.1//EN'  'http://www.w3.org/Graphics/SVG/1.1/DTD/svg11.dtd'>
<svg clip-rule="evenodd" fill-rule="evenodd" stroke-linejoin="round" stroke-miterlimit="2" version="1.1" viewBox="0 0 36 45" xml:space="preserve" xmlns="http://www.w3.org/2000/svg">
    <g transform="translate(-5008.6 -5257.2)">
        <g transform="translate(4848.2 4892.2)">
            <g transform="matrix(2.25 0 0 2.25 149.05 360.5)">
                <path d="m14 9h5.5l-5.5-5.5v5.5zm-7-7h8l6 6v12c0 1.104-0.896 2-2 2h-12.01c-1.104 0-1.99-0.896-1.99-2l0.01-16c0-1.104 0.885-2 1.99-2zm4.932 10.435c0.411 0.905 0.933 1.645 1.524 2.154l0.418 0.324c-0.872 0.155-2.072 0.435-3.341 0.925v-1e-3l-0.109 0.042 0.492-1.036c0.452-0.869 0.785-1.661 1.016-2.408zm6.475 3.813c0.18-0.18 0.277-0.408 0.284-0.662 0.027-0.195-0.017-0.386-0.123-0.551-0.293-0.463-1.037-0.687-2.277-0.687l-1.298 0.074-0.862-0.585c-0.638-0.522-1.202-1.429-1.596-2.557l0.035-0.141c0.335-1.328 0.637-2.936-0.023-3.595-0.161-0.16-0.372-0.244-0.606-0.244l-0.236-2e-3c-0.378 0-0.686 0.39-0.795 0.776-0.371 1.326-0.149 2.054 0.219 3.265l3e-3 0.012c-0.257 0.88-0.575 1.899-1.087 2.924l-0.952 1.805-0.89 0.49c-1.228 0.753-1.776 1.589-1.882 2.118-0.04 0.194-0.026 0.366 0.053 0.539l0.023 0.052 0.48 0.315 0.439 0.104c0.813 0 1.731-0.947 2.975-3.069l0.183-0.071c1.016-0.331 2.304-0.569 4.049-0.75 1.007 0.51 2.218 0.739 2.984 0.739 0.431 0 0.737-0.105 0.9-0.299zm-0.395-0.706 0.075 0.106c-0.01 0.098-0.042 0.113-0.089 0.129l-0.034 7e-3 -0.195 0.014c-0.456 0-1.165-0.191-1.902-0.512 0.09-0.1 0.159-0.1 0.229-0.1 1.395 0 1.805 0.249 1.916 0.356zm-9.183 1.454c-0.648 1.195-1.237 1.851-1.691 2.008 0.055-0.388 0.499-1.044 1.215-1.693l0.476-0.315zm3.017-6.905c-0.228-0.902-0.235-1.636-0.068-2.051l0.068-0.118 0.147 0.05c0.182 0.242 0.195 0.554 0.098 1.095l-0.031 0.163-0.16 0.823-0.054 0.038z" fill="#e55f55" fill-rule="nonzero"/>
            </g>
        </g>
    </g>
</svg>
