<?xml version="1.0" encoding="UTF-8"?>
<!DOCTYPE svg  PUBLIC '-//W3C//DTD SVG 1.1//EN'  'http://www.w3.org/Graphics/SVG/1.1/DTD/svg11.dtd'>
<svg clip-rule="evenodd" fill-rule="evenodd" stroke-linejoin="round" stroke-miterlimit="2" version="1.1" viewBox="0 0 18 19" xml:space="preserve" xmlns="http://www.w3.org/2000/svg">
    <g transform="translate(-9080.5 -25850)">
        <g transform="translate(9077.5 25847)">
            <path d="m9.799 13.398h2.5c1.5 0 2.161-0.273 2.8-0.82s0.9-1.329 0.9-2.348c0-0.972-0.249-1.753-0.9-2.345-0.65-0.591-1.272-0.887-2.8-0.887h-4.3v10h1.8v-3.6zm9.2-10.4c1.105 0 2 0.896 2 2v14c0 1.105-0.895 2-2 2h-14c-1.104 0-2-0.895-2-2v-14c0-1.104 0.896-2 2-2h14zm-9.2 9v-3.6h2.3c0.661 0 1.173 0.248 1.5 0.6 0.328 0.352 0.5 0.718 0.5 1.245 0 0.555-0.181 0.948-0.5 1.255-0.319 0.308-0.697 0.5-1.377 0.5h-2.423z" fill="#bebebe" fill-rule="nonzero"/>
        </g>
    </g>
</svg>
