<?xml version="1.0" encoding="UTF-8" standalone="no"?>
<!DOCTYPE svg PUBLIC "-//W3C//DTD SVG 1.1//EN" "http://www.w3.org/Graphics/SVG/1.1/DTD/svg11.dtd">
<svg width="100%" height="100%" viewBox="0 0 18 19" version="1.1" xmlns="http://www.w3.org/2000/svg" xmlns:xlink="http://www.w3.org/1999/xlink" xml:space="preserve" xmlns:serif="http://www.serif.com/" style="fill-rule:evenodd;clip-rule:evenodd;stroke-linejoin:round;stroke-miterlimit:2;">
    <g transform="matrix(1,0,0,1,-9080.48,-25850.4)">
        <g id="file-powerpoint-box" transform="matrix(1,0,0,1,9077.48,25847.4)">
            <path d="M9.799,13.398L12.299,13.398C13.799,13.398 14.46,13.125 15.099,12.578C15.738,12.031 15.999,11.249 15.999,10.23C15.999,9.258 15.75,8.477 15.099,7.885C14.449,7.294 13.827,6.998 12.299,6.998L7.999,6.998L7.999,16.998L9.799,16.998L9.799,13.398ZM18.999,2.998C20.104,2.998 20.999,3.894 20.999,4.998L20.999,18.998C20.999,20.103 20.104,20.998 18.999,20.998L4.999,20.998C3.895,20.998 2.999,20.103 2.999,18.998L2.999,4.998C2.999,3.894 3.895,2.998 4.999,2.998L18.999,2.998ZM9.799,11.998L9.799,8.398L12.099,8.398C12.76,8.398 13.272,8.646 13.599,8.998C13.927,9.35 14.099,9.716 14.099,10.243C14.099,10.798 13.918,11.191 13.599,11.498C13.28,11.806 12.902,11.998 12.222,11.998L9.799,11.998Z" style="fill:rgb(190,190,190);fill-rule:nonzero;"/>
        </g>
    </g>
</svg>
