<?xml version="1.0" encoding="UTF-8"?>
<!DOCTYPE svg  PUBLIC '-//W3C//DTD SVG 1.1//EN'  'http://www.w3.org/Graphics/SVG/1.1/DTD/svg11.dtd'>
<svg clip-rule="evenodd" fill-rule="evenodd" stroke-linejoin="round" stroke-miterlimit="2" version="1.1" viewBox="0 0 17 17" xml:space="preserve" xmlns="http://www.w3.org/2000/svg">
    <g transform="translate(-11845 -24296)">
        <g transform="matrix(.032087 0 0 .032087 11853 24304)">
            <g transform="translate(-256 -256)" fill-rule="nonzero">
                <path d="m496 432.01h-224c-8.832 0-16-7.168-16-16v-320c0-8.832 7.168-16 16-16h224c8.832 0 16 7.168 16 16v320c0 8.832-7.168 16-16 16z" fill="#eceff1"/>
                <g fill="#388e3c">
                    <path d="m336 176.01h-64c-8.832 0-16-7.168-16-16s7.168-16 16-16h64c8.832 0 16 7.168 16 16s-7.168 16-16 16z"/>
                    <path d="m336 240.01h-64c-8.832 0-16-7.168-16-16s7.168-16 16-16h64c8.832 0 16 7.168 16 16s-7.168 16-16 16z"/>
                    <path d="m336 304.01h-64c-8.832 0-16-7.168-16-16s7.168-16 16-16h64c8.832 0 16 7.168 16 16s-7.168 16-16 16z"/>
                    <path d="m336 368.01h-64c-8.832 0-16-7.168-16-16s7.168-16 16-16h64c8.832 0 16 7.168 16 16s-7.168 16-16 16z"/>
                    <path d="m432 176.01h-32c-8.832 0-16-7.168-16-16s7.168-16 16-16h32c8.832 0 16 7.168 16 16s-7.168 16-16 16z"/>
                    <path d="m432 240.01h-32c-8.832 0-16-7.168-16-16s7.168-16 16-16h32c8.832 0 16 7.168 16 16s-7.168 16-16 16z"/>
                    <path d="m432 304.01h-32c-8.832 0-16-7.168-16-16s7.168-16 16-16h32c8.832 0 16 7.168 16 16s-7.168 16-16 16z"/>
                    <path d="m432 368.01h-32c-8.832 0-16-7.168-16-16s7.168-16 16-16h32c8.832 0 16 7.168 16 16s-7.168 16-16 16z"/>
                </g>
                <path d="m282.21 19.691c-3.648-3.04-8.544-4.352-13.152-3.392l-256 48c-7.584 1.408-13.056 8-13.056 15.712v352c0 7.68 5.472 14.304 13.056 15.712l256 48c0.96 0.192 1.952 0.288 2.944 0.288 3.712 0 7.328-1.28 10.208-3.68 3.68-3.04 5.792-7.584 5.792-12.32v-448c0-4.768-2.112-9.28-5.792-12.32z" fill="#2e7d32"/>
                <path d="m220.03 309.48-50.592-57.824 51.168-65.792c5.44-6.976 4.16-17.024-2.784-22.464s-16.992-4.16-22.464 2.784l-47.392 60.928-39.936-45.632c-5.856-6.72-15.968-7.328-22.56-1.504-6.656 5.824-7.328 15.936-1.504 22.56l44 50.304-44.608 57.344c-5.44 6.976-4.16 17.024 2.784 22.464 2.944 2.272 6.432 3.36 9.856 3.36 4.768 0 9.472-2.112 12.64-6.176l40.8-52.48 46.528 53.152c3.168 3.648 7.584 5.504 12.032 5.504 3.744 0 7.488-1.312 10.528-3.968 6.656-5.824 7.328-15.936 1.504-22.56z" fill="#fafafa"/>
            </g>
        </g>
    </g>
</svg>
